PathFileType	4	(X/Y/Z)	C:/Users/opensim2020/Desktop/walking_exp_matlab/subject06_walking12_straigt_02.trc																																																																																																																																														
DataRate	CameraRate	NumFrames	NumMarkers	Units	OrigDataRate	OrigDataStartFrame	OrigNumFrames																																																																																																																																										
100	100	8	48	mm	100	1520	215																																																																																																																																										
Frame#	Time	LFHD			RFHD			LBHD			RBHD			C7			T10			CLAV			STRN			RBAK			LSHO			LUPA			LELB			LFRM			LWRA			LWRB			LFIN			RSHO			RUPA			RELB			RFRM			RWRA			RWRB			RFIN			LASI			RASI			LPSI			RPSI			LTHI			LKNE			LTIB			LANK			LHEE			LTOE			RTHI			RKNE			RTIB			RANK			RHEE			RTOE			*39			*40			*41			*42			*43			*44			*45			*46			*47		
		X1	Y1	Z1	X2	Y2	Z2	X3	Y3	Z3	X4	Y4	Z4	X5	Y5	Z5	X6	Y6	Z6	X7	Y7	Z7	X8	Y8	Z8	X9	Y9	Z9	X10	Y10	Z10	X11	Y11	Z11	X12	Y12	Z12	X13	Y13	Z13	X14	Y14	Z14	X15	Y15	Z15	X16	Y16	Z16	X17	Y17	Z17	X18	Y18	Z18	X19	Y19	Z19	X20	Y20	Z20	X21	Y21	Z21	X22	Y22	Z22	X23	Y23	Z23	X24	Y24	Z24	X25	Y25	Z25	X26	Y26	Z26	X27	Y27	Z27	X28	Y28	Z28	X29	Y29	Z29	X30	Y30	Z30	X31	Y31	Z31	X32	Y32	Z32	X33	Y33	Z33	X34	Y34	Z34	X35	Y35	Z35	X36	Y36	Z36	X37	Y37	Z37	X38	Y38	Z38	X39	Y39	Z39	X40	Y40	Z40	X41	Y41	Z41	X42	Y42	Z42	X43	Y43	Z43	X44	Y44	Z44	X45	Y45	Z45	X46	Y46	Z46	X47	Y47	Z47	X48	Y48	Z48
																																																																																																																																																	
81	0.8	-433.36075	1649.23608	-1485.07739	-445.23416	1635.04248	-1354.24048	-565.15973	1591.8075	-1497.17078	-575.98071	1584.19067	-1369.82837	-568.07141	1428.97717	-1444.15588	-591.13257	1100.27576	-1435.39636	-452.72565	1357.44348	-1433.80066	-407.2247	1181.56421	-1441.2251	-638.48584	1254.69861	-1378.80237	-501.38849	1389.09448	-1598.99976	-459.47452	1194.80981	-1676.56665	-427.61615	1088.21912	-1694.29456	-307.70218	1002.82239	-1711.17261	-183.96724	985.60052	-1661.94385	-213.44678	930.79572	-1695.8623	-124.12466	922.31573	-1697.17053	-518.81848	1385.17334	-1277.13708	-595.36377	1194.12146	-1203.25415	-609.39929	1073.21362	-1192.40833	-632.28137	955.34863	-1173.10327	-615.40662	801.3009	-1192.23499	-672.71606	823.25647	-1162.77405	-665.2326	738.79675	-1154.8197	-421.55447	933.60028	-1538.57434	-418.7627	949.25745	-1318.31519	-578.5495	969.00714	-1506.51819	-568.82281	974.16113	-1337.62354	-548.6792	631.33765	-1590.94043	-596.81989	472.77658	-1570.71814	-751.3205	263.68631	-1575.05969	-844.54437	115.74824	-1538.98462	-892.21045	120.09271	-1498.69775	-723.98114	38.84956	-1523.40784	-404.17642	627.12518	-1255.49597	-359.85114	512.79156	-1288.60034	-331.66714	248.76697	-1284.31531	-286.90729	70.0891	-1325.8811	-316.8765	41.57129	-1374.02551	-129.72552	58.08173	-1326.54297	-539.37659	1684.40869	-1433.69141	NaN	NaN	NaN	NaN	NaN	NaN	NaN	NaN	NaN	NaN	NaN	NaN	NaN	NaN	NaN	NaN	NaN	NaN	NaN	NaN	NaN	NaN	NaN	NaN
82	0.81	-421.56589	1650.07629	-1483.84961	-432.95538	1636.00867	-1352.93176	-553.29327	1592.54834	-1495.3905	-563.52625	1584.95728	-1367.98206	-556.23737	1429.58179	-1442.33167	-578.37024	1100.20691	-1434.38733	-440.75507	1358.19189	-1432.25391	-395.03995	1182.18567	-1439.95801	-626.14117	1253.93066	-1377.01477	-489.68329	1389.21423	-1597.75684	-448.44354	1194.02283	-1674.53027	-418.11322	1086.96875	-1692.13	-298.73221	1000.88062	-1708.80359	-175.1057	983.00024	-1659.5741	-204.9563	928.44873	-1693.59143	-115.58686	919.37634	-1694.59314	-506.62308	1385.37854	-1275.23669	-582.401	1193.84241	-1201.44055	-595.91882	1072.82178	-1190.57544	-617.94873	954.75244	-1171.7002	-600.86212	800.8938	-1190.70544	-658.26526	822.67633	-1161.11829	-650.48584	738.34766	-1153.07312	-408.69635	933.6601	-1537.81348	-404.76718	949.65289	-1317.42944	-565.61609	969.01428	-1505.51892	-555.53229	975.56592	-1336.31873	-534.85925	630.50116	-1589.35254	-581.84625	471.72464	-1568.86499	-741.80627	266.91397	-1574.56189	-839.341	121.79456	-1540.13733	-886.89014	128.14908	-1500.15173	-723.00513	38.91948	-1523.44922	-390.76108	629.29138	-1255.00439	-348.47263	514.19171	-1286.69617	-321.21542	250.50961	-1281.62463	-281.20096	69.37359	-1324.28638	-313.21146	43.26675	-1372.42603	-125.71751	53.90155	-1324.53625	-527.39716	1685.21301	-1432.01001	NaN	NaN	NaN	NaN	NaN	NaN	NaN	NaN	NaN	NaN	NaN	NaN	NaN	NaN	NaN	NaN	NaN	NaN	NaN	NaN	NaN	NaN	NaN	NaN
83	0.82	-409.77133	1651.35962	-1482.60059	-420.55652	1637.34265	-1351.62354	-541.47241	1593.90979	-1493.52539	-551.20117	1586.3855	-1366.13196	-544.12604	1430.98743	-1440.57214	-565.84454	1100.87988	-1433.53357	-428.90573	1359.46057	-1430.80786	-383.00455	1183.44678	-1438.63354	-613.93225	1253.91016	-1375.02002	-477.80237	1389.90308	-1596.61572	-437.83368	1193.65442	-1672.48755	-408.83685	1086.0625	-1690.07373	-290.43311	998.88293	-1706.21082	-166.79839	979.87231	-1657.24927	-197.22267	925.50958	-1691.29456	-107.88637	915.60504	-1692.08154	-494.34552	1386.0509	-1273.39478	-569.08313	1193.9397	-1199.60754	-581.98126	1072.81726	-1188.75879	-603.71716	954.63898	-1169.83276	-585.664	800.87561	-1189.31116	-643.14044	822.36914	-1159.49268	-634.87036	738.19305	-1151.43225	-396.02448	934.26837	-1537.12988	-390.9017	950.82666	-1316.61072	-552.70386	969.35858	-1504.81982	-542.42804	977.47827	-1335.64233	-520.55292	630.11432	-1587.51208	-565.34381	470.75009	-1567.04333	-731.58014	271.11908	-1573.82239	-833.29913	128.76843	-1540.72046	-880.21503	137.0854	-1500.72375	-721.68713	38.68914	-1523.11133	-378.25073	631.78241	-1253.63416	-337.43607	516.27441	-1283.78662	-312.04041	252.19638	-1279.51099	-278.94696	69.17606	-1323.17102	-311.5397	44.22102	-1371.48645	-123.87376	48.94231	-1322.10425	-515.22247	1686.51953	-1430.34229	NaN	NaN	NaN	NaN	NaN	NaN	NaN	NaN	NaN	NaN	NaN	NaN	NaN	NaN	NaN	NaN	NaN	NaN	NaN	NaN	NaN	NaN	NaN	NaN
84	0.83	-397.70032	1652.72803	-1481.35083	-407.99274	1638.76318	-1350.33191	-529.94293	1595.72192	-1491.96997	-538.82727	1588.20337	-1364.20056	-531.93817	1432.87317	-1438.94775	-553.58081	1102.24988	-1432.74023	-417.11035	1361.11877	-1429.45264	-370.96069	1185.10938	-1437.4751	-601.79639	1254.90088	-1373.04163	-465.64874	1391.08105	-1595.44006	-427.63565	1193.97815	-1670.3551	-399.74835	1085.73706	-1687.63086	-282.50223	996.69122	-1703.8479	-159.16988	976.11591	-1654.953	-190.21141	922.06665	-1688.74011	-101.20979	911.10101	-1689.73157	-482.00058	1387.22461	-1271.71936	-555.41748	1194.43689	-1197.87439	-567.5827	1073.23438	-1187.07361	-588.39484	954.83636	-1168.3717	-569.8595	801.35492	-1187.97815	-627.32428	822.45917	-1157.82385	-618.50049	738.43359	-1149.85986	-383.64026	935.38257	-1536.32874	-377.16721	952.98041	-1315.95886	-539.87372	970.04163	-1504.25586	-529.57764	979.81439	-1335.31616	-505.7298	630.07709	-1585.63062	-547.69659	470.08658	-1565.24756	-720.49884	276.34949	-1572.57788	-826.0459	136.58606	-1540.72803	-872.13727	147.11246	-1500.76892	-721.05505	38.80774	-1523.05554	-366.52234	634.21106	-1251.41113	-326.05222	518.67889	-1281.50024	-305.74261	252.96542	-1277.62805	-278.62628	69.39938	-1322.81311	-311.26974	44.58875	-1370.92383	-123.29003	45.93304	-1321.24609	-502.83826	1688.1936	-1428.66113	NaN	NaN	NaN	NaN	NaN	NaN	NaN	NaN	NaN	NaN	NaN	NaN	NaN	NaN	NaN	NaN	NaN	NaN	NaN	NaN	NaN	NaN	NaN	NaN
85	0.84	-385.62698	1654.25061	-1480.08594	-395.46362	1640.27136	-1348.96436	-518.13806	1597.70081	-1490.20959	-526.479	1590.15039	-1362.34521	-519.91071	1434.81616	-1437.47583	-541.57092	1104.14136	-1431.8634	-405.27295	1362.82202	-1428.14758	-358.91364	1186.95544	-1436.39734	-589.64301	1256.70105	-1371.03992	-453.47183	1392.81763	-1594.16797	-417.66306	1194.83899	-1668.24841	-390.76843	1086.16431	-1684.85535	-275.14713	994.73303	-1701.26526	-152.31464	971.60522	-1652.58887	-184.53473	918.39874	-1686.61963	-95.52895	905.75348	-1687.54846	-469.59671	1388.76733	-1270.23071	-541.52307	1195.30347	-1196.23853	-552.70721	1074.08545	-1185.46228	-573.03864	955.62939	-1166.61499	-553.36432	802.06531	-1186.57727	-610.67999	822.9021	-1156.23376	-601.54254	738.96039	-1148.2384	-371.31506	936.95062	-1535.24121	-363.86221	955.91138	-1315.48828	-527.07922	971.11285	-1503.6936	-517.06903	982.34979	-1335.1217	-490.28806	630.18976	-1583.88306	-528.90503	469.52585	-1563.91602	-708.06836	282.03015	-1571.37378	-817.50024	145.27422	-1540.245	-861.87976	157.72446	-1499.37366	-719.99762	38.91754	-1522.5708	-355.31213	636.60107	-1249.47595	-314.84674	520.74542	-1279.87683	-301.62244	253.61659	-1276.58179	-277.39865	69.74379	-1322.82349	-310.62091	45.05017	-1370.4115	-122.292	44.52717	-1321.73218	-490.43127	1690.01257	-1426.91968	NaN	NaN	NaN	NaN	NaN	NaN	NaN	NaN	NaN	NaN	NaN	NaN	NaN	NaN	NaN	NaN	NaN	NaN	NaN	NaN	NaN	NaN	NaN	NaN
86	0.85	-373.75778	1655.93677	-1478.7356	-383.00977	1641.91418	-1347.62036	-506.30209	1599.9375	-1488.47302	-514.24255	1592.12476	-1360.54358	-508.03369	1436.60791	-1435.96826	-529.65906	1106.23608	-1430.84241	-393.54025	1364.68481	-1426.96228	-346.98996	1188.94849	-1435.47131	-577.47748	1258.85181	-1369.12427	-441.45978	1394.8772	-1592.79468	-407.85361	1196.17761	-1666.07336	-381.77994	1087.25073	-1682.07568	-268.06192	993.03809	-1698.97888	-146.0298	966.84552	-1650.33411	-179.67105	914.30475	-1684.14832	-90.98091	899.62744	-1685.49377	-457.19675	1390.64478	-1268.96863	-527.87549	1196.46838	-1194.51453	-537.84747	1075.31494	-1184.06494	-556.94739	956.68768	-1165.0769	-536.16736	803.46771	-1185.43677	-593.4798	823.80182	-1154.37402	-583.73981	739.73889	-1146.81592	-358.53391	939.05023	-1533.67163	-351.19296	959.24207	-1314.81909	-514.35046	972.46472	-1502.8844	-504.64691	984.93622	-1334.71765	-474.22336	630.35229	-1582.26978	-509.36481	469.03821	-1562.98413	-694.45917	288.00253	-1570.22705	-807.25958	154.23479	-1539.51404	-850.09979	168.77974	-1497.80554	-718.60339	39.64458	-1522.25232	-344.28	638.95093	-1248.18555	-304.62543	522.07123	-1279.08289	-296.68658	254.52184	-1276.17444	-275.77594	70.41846	-1322.40259	-310.04245	45.57195	-1369.93433	-120.75008	42.89087	-1323.61523	-478.13501	1691.98987	-1425.21472	NaN	NaN	NaN	NaN	NaN	NaN	NaN	NaN	NaN	NaN	NaN	NaN	NaN	NaN	NaN	NaN	NaN	NaN	NaN	NaN	NaN	NaN	NaN	NaN
87	0.86	-361.67599	1657.73914	-1477.39819	-370.66751	1643.54248	-1346.302	-494.50717	1602.15149	-1486.95337	-502.05521	1594.13855	-1358.87158	-496.21814	1438.39172	-1434.5614	-517.9577	1108.40393	-1429.64856	-381.54886	1366.68359	-1425.98035	-335.01144	1191.09363	-1434.62	-565.29425	1261.26038	-1367.54639	-429.89401	1397.17358	-1591.44275	-398.04108	1197.92407	-1663.94324	-373.05228	1088.76025	-1678.89954	-261.93958	991.3653	-1695.99573	-140.38757	961.65308	-1648.21204	-175.51212	909.89496	-1681.60535	-87.5218	892.82141	-1683.57813	-444.79733	1392.74976	-1267.89429	-513.28198	1198.10425	-1193.18665	-522.60077	1076.77063	-1182.70959	-540.13257	958.06854	-1163.79431	-518.35541	804.9469	-1184.27869	-575.60449	824.74194	-1152.80847	-564.95844	740.85486	-1145.32178	-346.28555	941.12091	-1532.0459	-338.99051	962.58887	-1313.99866	-502.0282	974.0813	-1501.88489	-492.34998	987.3761	-1334.04956	-457.80505	630.43896	-1580.75439	-489.28345	468.65103	-1562.23962	-679.20428	293.72372	-1568.9165	-795.18298	162.85976	-1538.71362	-836.20935	179.47929	-1495.82043	-715.77924	39.89608	-1521.05127	-333.51648	640.40631	-1246.92175	-295.51797	523.09875	-1278.52039	-290.9263	255.34119	-1276.39441	-274.29642	70.60693	-1322.94373	-309.71878	45.89069	-1370.01453	-119.80849	41.58857	-1325.29224	-465.87213	1694.07874	-1423.46448	NaN	NaN	NaN	NaN	NaN	NaN	NaN	NaN	NaN	NaN	NaN	NaN	NaN	NaN	NaN	NaN	NaN	NaN	NaN	NaN	NaN	NaN	NaN	NaN
88	0.87	-349.66858	1659.5177	-1476.09705	-358.3522	1645.09534	-1344.97754	-482.69159	1604.40735	-1485.49768	-489.94614	1596.14319	-1357.42249	-484.43213	1440.2063	-1433.24268	-506.41193	1110.64856	-1428.27344	-369.68533	1368.57727	-1425.09607	-323.11435	1193.16064	-1433.83459	-553.15509	1263.7865	-1366.1698	-418.50989	1399.54663	-1590.08313	-388.04584	1199.92358	-1661.73071	-364.36438	1090.51099	-1675.75195	-256.14279	989.79279	-1693.47925	-135.48454	955.987	-1646.09045	-172.3853	905.2666	-1679.21301	-85.02011	885.45526	-1681.73755	-432.41208	1394.97266	-1266.97974	-499.1171	1199.83838	-1191.63171	-507.32681	1078.47717	-1181.38293	-523.40771	959.61328	-1162.33948	-500.16696	806.81238	-1183.19348	-557.25098	825.98022	-1151.12988	-545.61188	741.94629	-1144.00464	-334.42947	943.25793	-1530.32288	-327.21259	965.67224	-1312.79041	-490.13177	975.84894	-1500.63086	-480.30936	989.62653	-1332.98889	-441.16599	630.58093	-1579.25562	-468.90482	468.28366	-1561.28589	-662.23883	298.82227	-1567.25854	-781.90637	171.3336	-1538.05322	-820.85687	189.90221	-1494.18213	-711.80939	42.59778	-1520.88989	-323.56207	641.36066	-1246.53003	-287.54678	523.37805	-1278.39807	-285.54266	255.64034	-1276.96497	-273.5531	70.92111	-1323.56445	-309.52286	46.1582	-1370.2561	-119.07841	40.72147	-1326.17944	-453.61807	1696.10181	-1421.92688	NaN	NaN	NaN	NaN	NaN	NaN	NaN	NaN	NaN	NaN	NaN	NaN	NaN	NaN	NaN	NaN	NaN	NaN	NaN	NaN	NaN	NaN	NaN	NaN
